<svg width="195" height="167" viewBox="0 0 195 167" fill="none" xmlns="http://www.w3.org/2000/svg">
<path opacity="0.4" d="M124.35 107.739C119.672 106.339 114.743 101.806 109.562 94.1388C104.584 86.3628 103.636 77.3292 106.716 67.0381C109.796 56.747 116.44 48.4569 126.647 42.1678C136.854 35.8787 147.259 34.321 157.862 37.4946C168.465 40.6681 176.287 46.3222 181.328 54.4568C186.368 62.5914 187.302 71.9602 184.128 82.5631C181.001 93.0102 174.881 103.241 165.767 113.255C156.81 123.316 146.097 131.578 133.629 138.04C121.318 144.548 109.37 147.853 97.7874 147.954C93.3726 143.404 91.7948 138.175 93.0538 132.266C100.176 129.471 106.823 125.429 112.993 120.14C119.366 114.742 123.151 110.608 124.35 107.739ZM40.384 82.6073C35.8622 81.2539 31.011 76.7437 25.8304 69.0769C20.8523 61.3009 19.9035 52.2673 22.9837 41.9762C26.1106 31.5291 32.7543 23.2391 42.9149 17.1059C53.1221 10.8168 63.5272 9.25908 74.1301 12.4327C84.7331 15.6062 92.4769 21.237 97.3616 29.3249C102.402 37.4595 103.336 46.8283 100.162 57.4312C97.0352 67.8783 90.915 78.1089 81.8014 88.1232C72.8437 98.1842 62.131 106.446 49.6634 112.908C37.3517 119.416 25.4044 122.721 13.8214 122.822C9.45329 118.117 7.87543 112.887 9.08779 107.134C16.3664 104.386 23.0908 100.367 29.2609 95.0782C35.4311 89.7895 39.1388 85.6325 40.384 82.6073Z" fill="#FFC700"/>
</svg>
